<svg width="640" height="185" viewBox="0 0 640 185" xmlns="http://www.w3.org/2000/svg"><defs><linearGradient id="p" x1="0" y1="0" x2="0" y2="1"><stop offset="0%" stop-color="#12332a"/><stop offset="100%" stop-color="#0a1f19"/></linearGradient><linearGradient id="t" x1="0" y1="0" x2="0" y2="1"><stop offset="0%" stop-color="#061711"/><stop offset="100%" stop-color="#0b241c"/></linearGradient><radialGradient id="amb" cx="0.5" cy="0.5" r="0.5"><stop offset="0%" stop-color="#1d8a63" stop-opacity="0.35"/><stop offset="100%" stop-color="#1d8a63" stop-opacity="0"/></radialGradient></defs><rect width="640" height="185" fill="#04120d"/><ellipse cx="192" cy="37" rx="352" ry="166" fill="url(#amb)"><animate attributeName="opacity" values="0.7;1;0.7" dur="6s" repeatCount="indefinite"/></ellipse><ellipse cx="544" cy="166" rx="288" ry="148" fill="url(#amb)" opacity="0.7"><animate attributeName="opacity" values="0.9;0.5;0.9" dur="7s" repeatCount="indefinite"/></ellipse><rect x="1" y="1" width="638" height="183" rx="3" fill="url(#p)" fill-opacity="0.88" stroke="#03110b" stroke-width="2"/><rect x="3" y="3" width="634" height="179" rx="2" fill="none" stroke="#2a5a45" stroke-width="1" opacity="0.5"/><rect x="3" y="3" width="634" height="38" fill="url(#t)"/><text x="320" y="28" font-family="Georgia, serif" font-size="15" font-weight="bold" letter-spacing="5" fill="#c8aa6e" text-anchor="middle">QUEST LOG</text><rect x="26" y="63" width="12" height="12" transform="rotate(45 32 69)" fill="#c8aa6e"/><path d="M28 68 l3 4 l6 -8" stroke="#071c14" stroke-width="2" fill="none"/><text x="56" y="72" font-family="Verdana, Geneva, sans-serif" font-size="12" fill="#c9d1d9">Ship a production-grade RAG system — PaperScout</text><text x="618" y="72" font-family="Verdana, Geneva, sans-serif" font-size="9.5" letter-spacing="2" fill="#c8aa6e" text-anchor="end">COMPLETED</text><rect x="26" y="99" width="12" height="12" transform="rotate(45 32 105)" fill="none" stroke="#6f7d76" stroke-width="1.5"/><text x="56" y="108" font-family="Verdana, Geneva, sans-serif" font-size="12" fill="#8b949e">Power BI dashboard — mid lane</text><text x="618" y="108" font-family="Verdana, Geneva, sans-serif" font-size="9.5" letter-spacing="2" fill="#2ea87a" text-anchor="end">IN PROGRESS</text><rect x="26" y="135" width="12" height="12" transform="rotate(45 32 141)" fill="none" stroke="#6f7d76" stroke-width="1.5"/><text x="56" y="144" font-family="Verdana, Geneva, sans-serif" font-size="12" fill="#8b949e">Databricks lakehouse pipeline — offlane</text><text x="618" y="144" font-family="Verdana, Geneva, sans-serif" font-size="9.5" letter-spacing="2" fill="#6f7d76" text-anchor="end">QUEUED</text></svg>